# xmcd
#
# Track frame offsets: 
#        150
#        12890
#        24784
#        37183
#        50117
#        62834
#        74164
#        89202
#        101339
#        116428
#
# Disc length: 1724 seconds
#
# Revision: 3
# Processed by: cddbd v1.5.2PL0 Copyright (c) Steve Scherf et al.
# Submitted via: ExactAudioCopy v0.99pb5
#
DISCID=8c06ba0a
DTITLE=Reba McEntire - The Best Of Reba McEntire
DYEAR=1900
DGENRE=Country
TTITLE0=(You Lift Me) Up To Heaven
TTITLE1=There Ain't No Future In This
TTITLE2=I Don't Think Love Ought To Be That Way
TTITLE3=Only You (And You Alone)
TTITLE4=I'm Not That Lonely Yet
TTITLE5=Can't Even Get The Blues
TTITLE6=Today All Over Again
TTITLE7=Why Do We Want (What We Know We Can't Have)
TTITLE8=My Turn
TTITLE9=You're The First Time I've Thought About Leaving
EXTD=
EXTT0=
EXTT1=
EXTT2=
EXTT3=
EXTT4=
EXTT5=
EXTT6=
EXTT7=
EXTT8=
EXTT9=
PLAYORDER=
